<?xml version="1.0" standalone="no"?><svg xmlns="http://www.w3.org/2000/svg" viewBox="0 0 1440 320"><path fill="#0099ff" fill-opacity="1" d="M0,32L34.3,53.3C68.6,75,137,117,206,138.7C274.3,160,343,160,411,144C480,128,549,96,617,90.7C685.7,85,754,107,823,96C891.4,85,960,43,1029,69.3C1097.1,96,1166,192,1234,208C1302.9,224,1371,160,1406,128L1440,96L1440,320L1405.7,320C1371.4,320,1303,320,1234,320C1165.7,320,1097,320,1029,320C960,320,891,320,823,320C754.3,320,686,320,617,320C548.6,320,480,320,411,320C342.9,320,274,320,206,320C137.1,320,69,320,34,320L0,320Z"></path></svg>