<?xml version="1.0" standalone="no"?><svg xmlns="http://www.w3.org/2000/svg" viewBox="0 0 1440 320"><path fill="#0099ff" fill-opacity="1" d="M0,224L34.3,213.3C68.6,203,137,181,206,154.7C274.3,128,343,96,411,96C480,96,549,128,617,160C685.7,192,754,224,823,224C891.4,224,960,192,1029,186.7C1097.1,181,1166,203,1234,192C1302.9,181,1371,139,1406,117.3L1440,96L1440,0L1405.7,0C1371.4,0,1303,0,1234,0C1165.7,0,1097,0,1029,0C960,0,891,0,823,0C754.3,0,686,0,617,0C548.6,0,480,0,411,0C342.9,0,274,0,206,0C137.1,0,69,0,34,0L0,0Z"></path></svg>